<svg xmlns="http://www.w3.org/2000/svg" viewBox="0 0 175 76" width="175" height="76"><defs></defs><g transform="matrix(1,0,0,1,-139,-274)">
<g transform="matrix(1,0,0,1,139,274)">
	<g>
		<path d="M48.660523,5.5466C35.733191,5.5466 21.302167,8.316684 12.962455,14.891644 C4.98029,21.184717 3.252419,29.205248 3.252419,38.639737 C3.252419,47.870082 3.227798,54.803564 10.906546,61.056161 C19.276513,67.871599 35.27856,71.335709 48.473622,71.335709 C63.274951,71.335709 79.896891,68.435589 88.283509,60.121656 C94.232431,54.224292 94.956406,46.645303 94.956406,38.639737 C94.956406,29.180916 94.059297,22.497477 86.040698,16.19995 C77.705098,9.653462 61.555944,5.5466 48.660523,5.5466 Z" fill="#ffffff" fill-opacity="0.344" stroke="#f0f0f0" stroke-width="2"/>
	</g>
	<g>
		<path d="M86.902094,5.065378C73.974762,5.065378 59.543739,7.835462 51.204027,14.410421 C43.221861,20.703494 41.49399,28.724025 41.49399,38.158514 C41.49399,47.388859 41.469369,54.322341 49.148117,60.574938 C57.518084,67.390376 73.520131,70.854486 86.715193,70.854486 C101.516523,70.854486 118.138462,67.954366 126.52508,59.640434 C132.474002,53.743069 133.197977,46.16408 133.197977,38.158514 C133.197977,28.699694 132.300868,22.016254 124.282269,15.718728 C115.946669,9.172239 99.797516,5.065378 86.902094,5.065378 Z" transform="matrix(1,0,0,1,0,0)" fill="#ffffff" fill-opacity="0.344" stroke="#f0f0f0" stroke-width="2"/>
	</g>
	<g>
		<path d="M124.533893,5.681919C111.606561,5.681919 97.175538,8.452003 88.835825,15.026963 C80.85366,21.320036 79.125789,29.340567 79.125789,38.775056 C79.125789,48.005401 79.101168,54.938883 86.779916,61.19148 C95.149883,68.006918 111.15193,71.471028 124.346992,71.471028 C139.148322,71.471028 155.770261,68.570908 164.156879,60.256975 C170.105801,54.359611 170.829776,46.780622 170.829776,38.775056 C170.829776,29.316235 169.932667,22.632796 161.914068,16.335269 C153.578468,9.788781 137.429315,5.681919 124.533893,5.681919 Z" fill="#ffffff" fill-opacity="0.344" stroke="#f0f0f0" stroke-width="2"/>
	</g>
</g></g></svg>