<svg xmlns="http://www.w3.org/2000/svg" viewBox="0 0 175 76" width="175" height="76"><defs></defs><g transform="matrix(1,0,0,1,-139,-274)">
<g transform="matrix(1,0,0,1,139,274)">
	<g>
		<path d="M48.701827,5.373648C35.774496,5.373648 21.343472,8.143732 13.00376,14.718692 C5.021595,21.011765 3.293723,29.032296 3.293723,38.466785 C3.293723,47.69713 3.269103,54.630612 10.94785,60.883209 C19.317817,67.698647 35.319865,71.162757 48.514927,71.162757 C63.316256,71.162757 79.938196,68.262637 88.324813,59.948704 C94.273736,54.05134 94.997711,46.472351 94.997711,38.466785 C94.997711,29.007964 94.100601,22.324525 86.082003,16.026998 C77.746402,9.48051 61.597249,5.373648 48.701827,5.373648 Z" fill="#ffffff" fill-opacity="0.344" stroke="#000000" stroke-width="2"/>
	</g>
	<g>
		<path d="M86.902094,5.065378C73.974762,5.065378 59.543739,7.835462 51.204027,14.410421 C43.221861,20.703494 41.49399,28.724025 41.49399,38.158514 C41.49399,47.388859 41.469369,54.322341 49.148117,60.574938 C57.518084,67.390376 73.520131,70.854486 86.715193,70.854486 C101.516523,70.854486 118.138462,67.954366 126.52508,59.640434 C132.474002,53.743069 133.197977,46.16408 133.197977,38.158514 C133.197977,28.699694 132.300868,22.016254 124.282269,15.718728 C115.946669,9.172239 99.797516,5.065378 86.902094,5.065378 Z" transform="matrix(1,0,0,1,0,0)" fill="#ffffff" fill-opacity="0.344" stroke="#000000" stroke-width="2"/>
	</g>
	<g>
		<path d="M124.533893,5.681919C111.606561,5.681919 97.175538,8.452003 88.835825,15.026963 C80.85366,21.320036 79.125789,29.340567 79.125789,38.775056 C79.125789,48.005401 79.101168,54.938883 86.779916,61.19148 C95.149883,68.006918 111.15193,71.471028 124.346992,71.471028 C139.148322,71.471028 155.770261,68.570908 164.156879,60.256975 C170.105801,54.359611 170.829776,46.780622 170.829776,38.775056 C170.829776,29.316235 169.932667,22.632796 161.914068,16.335269 C153.578468,9.788781 137.429315,5.681919 124.533893,5.681919 Z" fill="#ffffff" fill-opacity="0.344" stroke="#000000" stroke-width="2"/>
	</g>
</g></g></svg>